<?xml version="1.0" encoding="iso-8859-1"?>
<!-- Generator: Adobe Illustrator 19.0.0, SVG Export Plug-In . SVG Version: 6.00 Build 0)  -->
<svg version="1.1" id="Layer_1" xmlns="http://www.w3.org/2000/svg" xmlns:xlink="http://www.w3.org/1999/xlink" x="0px" y="0px"
	 viewBox="0 0 281.191 281.191" style="enable-background:new 0 0 281.191 281.191;" xml:space="preserve">
<g>
	<path style="fill:#A7A9AC;" d="M219.313,276.191H61.878c-11.046,0-20-8.954-20-20V25c0-11.046,8.954-20,20-20h157.435
		c11.046,0,20,8.954,20,20v231.191C239.313,267.237,230.359,276.191,219.313,276.191z"/>
	<rect x="74.474" y="37.596" style="fill:#FFE49C;" width="132.244" height="56"/>
	<g>
		<path style="fill:#393654;" d="M219.313,0H61.878c-13.785,0-25,11.215-25,25v231.191c0,13.785,11.215,25,25,25h157.435
			c13.785,0,25-11.215,25-25V25C244.313,11.215,233.098,0,219.313,0z M234.313,256.191c0,8.271-6.729,15-15,15H61.878
			c-8.271,0-15-6.729-15-15V25c0-8.271,6.729-15,15-15h157.435c8.271,0,15,6.729,15,15L234.313,256.191L234.313,256.191z"/>
		<path style="fill:#393654;" d="M206.718,32.596H74.474c-2.761,0-5,2.238-5,5v56c0,2.762,2.239,5,5,5h132.244c2.761,0,5-2.238,5-5
			v-56C211.718,34.834,209.479,32.596,206.718,32.596z M201.718,88.596H79.474v-46h122.244V88.596z"/>
		<path style="fill:#393654;" d="M205.262,113.94h-29.95c-2.761,0-5,2.239-5,5v29.95c0,2.761,2.239,5,5,5h29.95c2.761,0,5-2.239,5-5
			v-29.95C210.262,116.179,208.024,113.94,205.262,113.94z"/>
		<path style="fill:#393654;" d="M155.571,113.94h-29.95c-2.761,0-5,2.239-5,5v29.95c0,2.761,2.239,5,5,5h29.95c2.761,0,5-2.239,5-5
			v-29.95C160.571,116.179,158.332,113.94,155.571,113.94z"/>
		<path style="fill:#393654;" d="M105.879,113.94h-29.95c-2.761,0-5,2.239-5,5v29.95c0,2.761,2.239,5,5,5h29.95c2.761,0,5-2.239,5-5
			v-29.95C110.879,116.179,108.641,113.94,105.879,113.94z"/>
		<path style="fill:#393654;" d="M155.571,163.632h-29.95c-2.761,0-5,2.239-5,5v29.95c0,2.761,2.239,5,5,5h29.95
			c2.761,0,5-2.239,5-5v-29.95C160.571,165.87,158.332,163.632,155.571,163.632z"/>
		<path style="fill:#393654;" d="M105.879,163.632h-29.95c-2.761,0-5,2.239-5,5v29.95c0,2.761,2.239,5,5,5h29.95
			c2.761,0,5-2.239,5-5v-29.95C110.879,165.87,108.641,163.632,105.879,163.632z"/>
		<path style="fill:#393654;" d="M155.571,213.323h-29.95c-2.761,0-5,2.239-5,5v29.95c0,2.761,2.239,5,5,5h29.95
			c2.761,0,5-2.239,5-5v-29.95C160.571,215.562,158.332,213.323,155.571,213.323z"/>
		<path style="fill:#393654;" d="M105.879,213.323h-29.95c-2.761,0-5,2.239-5,5v29.95c0,2.761,2.239,5,5,5h29.95
			c2.761,0,5-2.239,5-5v-29.95C110.879,215.562,108.641,213.323,105.879,213.323z"/>
		<path style="fill:#393654;" d="M205.262,163.632h-29.95c-2.761,0-5,2.239-5,5v79.642c0,2.761,2.239,5,5,5h29.95
			c2.761,0,5-2.239,5-5v-79.642C210.262,165.87,208.024,163.632,205.262,163.632z"/>
	</g>
</g>
<g>
</g>
<g>
</g>
<g>
</g>
<g>
</g>
<g>
</g>
<g>
</g>
<g>
</g>
<g>
</g>
<g>
</g>
<g>
</g>
<g>
</g>
<g>
</g>
<g>
</g>
<g>
</g>
<g>
</g>
</svg>
