<?xml version="1.0" encoding="iso-8859-1"?>
<!-- Generator: Adobe Illustrator 19.0.0, SVG Export Plug-In . SVG Version: 6.00 Build 0)  -->
<svg version="1.1" id="Layer_1" xmlns="http://www.w3.org/2000/svg" xmlns:xlink="http://www.w3.org/1999/xlink" x="0px" y="0px"
	 viewBox="0 0 512 512" style="enable-background:new 0 0 512 512;" xml:space="preserve">
<path style="fill:#F0DCBE;" d="M431.693,487.787l-5.443-13.605c-1.668-4.172-2.526-8.623-2.526-13.117v-93.05
	c0-49.562-17.376-97.556-49.105-135.63l-83.309-99.97v-35.31l32.514-65.03c1.839-3.677,2.796-7.732,2.796-11.843v-0.015
	C326.621,9.05,317.57,0,306.405,0h-13.982c-6.482,0-12.819,1.919-18.212,5.514l0,0c-11.028,7.352-25.395,7.352-36.424,0.001
	l-0.002-0.001C232.393,1.919,226.056,0,219.575,0h-13.981c-11.165,0-20.215,9.05-20.215,20.215v0.015
	c0,4.111,0.957,8.167,2.796,11.843l32.514,65.03v35.31l-83.309,99.97c-31.729,38.074-49.105,86.069-49.105,135.63v93.052
	c0,4.492-0.857,8.943-2.526,13.115l-5.443,13.607C75.667,499.384,84.209,512,96.698,512H415.3
	C427.793,512,436.333,499.384,431.693,487.787z"/>
<path style="fill:#EBD2AF;" d="M176.414,487.787l2.999-13.607c0.919-4.171,1.393-8.621,1.393-13.115v-93.052
	c0-49.563,9.576-97.556,27.06-135.63l45.909-99.97v-35.31l-17.918-65.03c-1.013-3.678-1.54-7.732-1.54-11.843v-0.015
	c0-5.798,1.363-10.988,3.518-14.675c-0.014-0.01-0.03-0.015-0.045-0.025l-0.002-0.001C232.393,1.918,226.056,0,219.575,0h-13.981
	c-11.165,0-20.215,9.05-20.215,20.215v0.017c0,4.111,0.958,8.166,2.796,11.843l32.514,65.028v35.31l-83.309,99.97
	c-31.729,38.074-49.105,86.069-49.105,135.63v93.052c0,4.492-0.857,8.943-2.526,13.115l-5.443,13.607
	C75.667,499.384,84.209,512,96.698,512h88.748C178.563,512,173.857,499.384,176.414,487.787z"/>
<path style="fill:#E1C3A0;" d="M256,123.59c-3.345,0-6.401-1.888-7.896-4.879l-30.897-61.793c-2.182-4.362-0.414-9.664,3.948-11.844
	c4.375-2.185,9.664-0.405,11.844,3.948l23,46.005l23-46.004c2.182-4.353,7.478-6.134,11.844-3.948
	c4.362,2.182,6.13,7.482,3.948,11.844l-30.897,61.793C262.401,121.702,259.345,123.59,256,123.59z"/>
<g>
	<path style="fill:#7D5550;" d="M291.31,97.103H220.69c-4.875,0-8.828,3.953-8.828,8.828l0,0c0,4.875,3.953,8.828,8.828,8.828
		h70.621c4.875,0,8.828-3.953,8.828-8.828l0,0C300.138,101.056,296.185,97.103,291.31,97.103z"/>
	<path style="fill:#7D5550;" d="M291.31,114.759H220.69c-4.875,0-8.828,3.953-8.828,8.828l0,0c0,4.875,3.953,8.828,8.828,8.828
		h70.621c4.875,0,8.828-3.953,8.828-8.828l0,0C300.138,118.711,296.185,114.759,291.31,114.759z"/>
</g>
<g>
	<path style="fill:#6E4641;" d="M220.69,114.759H256c-4.875,0-8.828-3.953-8.828-8.828c0-4.875,3.953-8.828,8.828-8.828h-35.31
		c-4.875,0-8.828,3.953-8.828,8.828C211.862,110.806,215.815,114.759,220.69,114.759z"/>
	<path style="fill:#6E4641;" d="M220.69,132.414H256c-4.875,0-8.828-3.953-8.828-8.828c0-4.875,3.953-8.828,8.828-8.828h-35.31
		c-4.875,0-8.828,3.953-8.828,8.828C211.862,128.461,215.815,132.414,220.69,132.414z"/>
</g>
<path style="fill:#EBD2AF;" d="M388.414,467.862H123.586c-4.875,0-8.828,3.953-8.828,8.828l0,0c0,4.875,3.953,8.828,8.828,8.828
	h264.828c4.875,0,8.828-3.953,8.828-8.828l0,0C397.241,471.815,393.289,467.862,388.414,467.862z"/>
<path style="fill:#E1C3A0;" d="M123.586,467.862c-4.875,0-8.828,3.953-8.828,8.828c0,4.875,3.953,8.828,8.828,8.828h53.327
	l2.499-11.337c0.451-2.047,0.789-4.164,1.022-6.318H123.586z"/>
<path style="fill:#7D5550;" d="M312.232,376.319c0-22.026-12.992-35.526-38.976-41.209l-9.146-1.795v-37.858
	c6.982,1.462,12.492,5.6,15.242,11.116c2.326,4.668,7.072,7.628,12.287,7.628c10.625,0,17.518-11.712,11.861-20.706
	c-7.384-11.741-21.226-19.613-39.39-21.631v-6.539c0-5.15-4.174-9.324-9.324-9.324c-5.15,0-9.324,4.174-9.324,9.324v6.536
	c-28.828,3.138-45.692,18.916-45.692,43.051c0,21.112,13.094,35.221,37.555,40.905l8.136,1.919v39.785
	c-8.238-1.532-14.507-5.754-17.6-11.687c-2.403-4.61-7.072-7.586-12.27-7.586h-1.372c-10.632,0-17.444,11.677-11.858,20.723
	c7.61,12.323,22.63,20.087,43.1,21.805v4.396c0,5.15,4.174,9.324,9.324,9.324c5.15,0,9.324-4.174,9.324-9.324v-4.492
	C294.888,417.511,312.232,401.624,312.232,376.319z M229.102,312.374c0-8.86,6.691-15.562,16.358-17.067v34.086
	C234.777,326.481,229.102,320.65,229.102,312.374z M264.109,397.882v-36.618c13.217,2.974,19.398,8.861,19.398,18.302
	C283.507,389.852,276.352,396.597,264.109,397.882z"/>
<g>
</g>
<g>
</g>
<g>
</g>
<g>
</g>
<g>
</g>
<g>
</g>
<g>
</g>
<g>
</g>
<g>
</g>
<g>
</g>
<g>
</g>
<g>
</g>
<g>
</g>
<g>
</g>
<g>
</g>
</svg>
